<svg xmlns="http://www.w3.org/2000/svg" viewBox="0 0 512 512">
  <rect width="512" height="512" fill="#010a14"/>
  <circle cx="80" cy="90" r="3" fill="#a0c0d0" opacity="0.5"/>
  <circle cx="200" cy="50" r="2" fill="#a0c0d0" opacity="0.4"/>
  <circle cx="380" cy="120" r="3" fill="#a0c0d0" opacity="0.5"/>
  <circle cx="450" cy="60" r="2" fill="#a0c0d0" opacity="0.4"/>
  <circle cx="420" cy="200" r="3" fill="#a0c0d0" opacity="0.5"/>
  <circle cx="60" cy="300" r="2" fill="#a0c0d0" opacity="0.4"/>
  <circle cx="480" cy="350" r="3" fill="#a0c0d0" opacity="0.5"/>
  <circle cx="140" cy="420" r="2" fill="#a0c0d0" opacity="0.3"/>
  <path d="M256 130 L195 310 L256 282 L317 310 Z" fill="#1a4a6a" stroke="#4aafe0" stroke-width="2.5"/>
  <ellipse cx="256" cy="195" rx="26" ry="35" fill="#0a2a4a" stroke="#4aafe0" stroke-width="2"/>
  <ellipse cx="256" cy="195" rx="17" ry="24" fill="#4aafe0" opacity="0.25"/>
  <path d="M195 255 L128 345 L195 308 Z" fill="#1a3a5a" stroke="#2a6a9a" stroke-width="2"/>
  <path d="M317 255 L384 345 L317 308 Z" fill="#1a3a5a" stroke="#2a6a9a" stroke-width="2"/>
  <ellipse cx="228" cy="312" rx="11" ry="7" fill="#4aafe0" opacity="0.7"/>
  <ellipse cx="284" cy="312" rx="11" ry="7" fill="#4aafe0" opacity="0.7"/>
  <text x="256" y="405" text-anchor="middle" font-family="monospace" font-size="34" fill="#4aafe0" letter-spacing="5" font-weight="bold">LONG</text>
  <text x="256" y="448" text-anchor="middle" font-family="monospace" font-size="34" fill="#2a6a9a" letter-spacing="5" font-weight="bold">ROUTE</text>
</svg>
